<svg class="splinter" xmlns="http://www.w3.org/2000/svg" version="1.1" width="202" height="31" viewBox="0 0 202 31">
  <path d="M.345 23.56c-.276-.277-.38-.587-.138-1.036l1.588-2.795c.276-.45.828-.45 1.173-.21.966.65 2.726 1.9 4.9 1.9 1.38 0 2.38-.87 2.38-2.07 0-1.45-1.275-2.39-3.553-3.49C3.348 14.24 0 12.38 0 8.23c0-3.41 2.657-6.86 7.972-6.86 3.59 0 6.35 1.83 7.385 2.588.414.24.345.863.207 1.104l-1.76 2.657c-.242.38-.828.65-1.52.24-.792-.55-2.828-1.87-4.657-1.87-1.45 0-2.105.9-2.105 1.9 0 1.14 1.345 2.03 3.76 3.21 3.038 1.48 6.972 3.17 6.972 7.87 0 3.55-3.072 7.14-8.144 7.14-4.486 0-6.97-1.87-7.765-2.66M36.58 12.06c1.484 0 2.52-1.173 2.52-2.726 0-1.45-1.036-2.55-2.52-2.55h-3.485v5.28h3.485zm-8.87-9.69c0-.345.277-.655.657-.655h8.317c4.555 0 7.73 3.45 7.73 7.626 0 4.28-3.175 7.77-7.696 7.77h-3.623v8.11c0 .35-.31.66-.656.66h-4.08c-.38 0-.66-.31-.66-.65V2.37zm27.167 0c0-.345.276-.655.656-.655h4.107c.345 0 .655.31.655.656V20.8h8.213c.38 0 .656.31.656.656v3.762c0 .345-.276.655-.656.655H55.533c-.38 0-.656-.31-.656-.654V2.37zm42.413-.38c0-.344.31-.62.655-.62h.518c.345 0 .586.24.862.517l13.252 12.734h.035V2.37c0-.345.276-.655.655-.655h4.14c.346 0 .657.31.657.656V25.6c0 .414-.31.62-.656.62h-.345c-.345 0-.586-.102-.862-.378l-13.42-13.495h-.03V25.22c0 .344-.27.654-.65.654h-4.11c-.34 0-.65-.31-.65-.654L97.3 1.99zm36.8 4.798h-4.935c-.38 0-.655-.31-.655-.656v-3.76c0-.347.276-.657.655-.657h15.323c.38 0 .655.31.655.656v3.77c0 .35-.276.66-.655.66h-4.935v18.42c0 .35-.31.66-.656.66h-4.14c-.346 0-.657-.31-.657-.65V6.79zm21.462-4.418c0-.345.276-.655.656-.655h14.287c.38 0 .655.31.655.656v3.77c0 .35-.276.66-.655.66h-9.56v4.28h7.87c.344 0 .654.31.654.66v3.76c0 .38-.31.66-.66.66h-7.87v4.66h9.56c.38 0 .65.31.65.656v3.763c0 .344-.28.654-.66.654H156.2c-.38 0-.655-.31-.655-.652V2.37zm38.143 9.663c1.415 0 2.623-1.14 2.623-2.76 0-1.623-1.208-2.623-2.623-2.623h-5.107v5.383h5.107zM183.17 2.37c0-.345.276-.655.656-.655h10.318c4.383 0 7.523 3.347 7.523 7.454 0 3.17-1.898 5.72-5.108 6.93l4.72 8.76c.24.45 0 1-.59 1h-4.59c-.28 0-.49-.17-.55-.31l-4.59-9.15h-2.39v8.8c0 .342-.31.652-.657.652h-4.106c-.38 0-.657-.31-.657-.653V2.37z" fill="#000"></path>
  <path d="M82.746 30.963c-1.01 0-3.23-24.768-3.68-29.92-.045-.503.352-.932.857-.932h5.835c.507 0 .905.44.857.94-.484 5.17-2.86 29.92-3.87 29.92" fill="#F85637"></path>
</svg>
