<svg class="intercept" xmlns="http://www.w3.org/2000/svg" version="1.1" viewBox="0 0 140 50">
  <path fill="#fff" d="M51.731,30.458c1.246,0,2.264,1.425,2.264,3.206l-4.605,0.56C49.517,31.781,50.28,30.458,51.731,30.458 M40.789,8.601 c1.247,0,2.265,1.424,2.265,3.206l-4.606,0.559C38.575,9.924,39.339,8.601,40.789,8.601 M92.774,30.458 c1.247,0,2.264,1.425,2.264,3.206l-4.605,0.56C90.56,31.781,91.323,30.458,92.774,30.458 M128.295,46.463H140v-2.188h-11.705 V46.463z M106.642,31.679c0.279-0.101,0.61-0.178,1.272-0.178c2.544,0,4.275,1.68,4.275,5.42c0,3.104-1.705,5.216-4.173,5.216 c-0.408,0-0.891-0.076-1.374-0.229V31.679z M68.652,33.206h3.18v-4.097c-0.61-0.254-1.017-0.356-1.603-0.356 c-0.992,0-2.188,0.662-3.435,1.654l-0.916,0.713v-2.367h-0.661l-6.285,1.272v0.967l2.112,0.637v10l-2.112,0.763v0.865h9.313v-0.865 l-2.367-0.763v-9.39c0.611-0.229,1.68-0.407,1.934-0.407L68.652,33.206z M80.484,28.753c-3.995,0-8.372,2.494-8.372,8.066 c0,4.631,3.079,6.82,6.412,6.82c1.146,0,2.469-0.153,4.402-0.967l2.341-0.993l-0.33-0.916c-0.586,0.229-1.4,0.382-2.545,0.382 c-3.155,0-5.547-1.883-5.547-6.132c0-2.952,1.705-4.555,3.257-4.555c0.153,0,0.331,0.025,0.484,0.102l1.399,2.646h2.926v-3.613 C83.741,29.16,82.138,28.753,80.484,28.753 M123.792,26.489h-1.171l-5.521,3.18v1.069l1.857,0.178v10.076 c0,1.807,1.425,2.647,3.435,2.647c0.942,0,2.697-0.306,3.868-0.662l2.035-0.636l-0.178-0.941c-0.33,0.076-0.916,0.101-1.246,0.101 c-1.858,0-3.079-0.687-3.079-2.977v-7.455l4.351,0.229v-2.163h-4.351V26.489z M40.128,26.489h-1.171l-5.522,3.18v1.069l1.858,0.178 v10.076c0,1.807,1.425,2.647,3.435,2.647c0.942,0,2.697-0.306,3.868-0.662l2.035-0.636L44.453,41.4 c-0.331,0.076-0.916,0.101-1.247,0.101c-1.857,0-3.078-0.687-3.078-2.977v-7.455l4.351,0.229v-2.163h-4.351V26.489z M58.626,35.293 v-0.407c0-2.189-1.476-6.133-6.437-6.133c-3.766,0-7.558,2.494-7.558,8.066c0,4.555,3.334,6.82,6.972,6.82 c1.069,0,2.621-0.178,4.428-0.967l2.264-0.993l-0.33-0.916c-0.586,0.229-1.4,0.382-2.596,0.382c-2.799,0-5.878-1.628-6.005-5.852 H58.626z M99.67,35.293v-0.407c0-2.189-1.476-6.133-6.438-6.133c-3.766,0-7.557,2.494-7.557,8.066c0,4.555,3.333,6.82,6.972,6.82 c1.068,0,2.62-0.178,4.427-0.967l2.265-0.993l-0.331-0.916c-0.585,0.229-1.4,0.382-2.596,0.382c-2.798,0-5.877-1.628-6.005-5.852 H99.67z M47.685,13.435v-0.407c0-2.188-1.476-6.132-6.438-6.132c-3.766,0-7.557,2.493-7.557,8.066c0,4.555,3.333,6.819,6.972,6.819 c1.069,0,2.621-0.178,4.427-0.967l2.265-0.992l-0.331-0.916c-0.585,0.229-1.399,0.382-2.595,0.382 c-2.799,0-5.878-1.629-6.005-5.853H47.685z M6.438,25.598v15.725L3.97,42.265v0.992h10.865v-0.992l-2.468-0.942V25.598l2.468-0.942 v-0.992H3.97v0.992L6.438,25.598z M31.781,41.629V33.74c0-2.926-1.094-4.987-4.045-4.987c-1.222,0-2.138,0.382-3.334,0.916 l-2.163,0.942v-1.858h-0.661l-6.285,1.272v0.967l2.112,0.637v10l-2.112,0.763v0.865h8.804v-0.865l-1.858-0.763v-9.924 c0.458-0.127,1.247-0.204,1.833-0.204c1.577,0,2.875,0.865,2.875,3.461v6.667l-1.858,0.763v0.865h8.804v-0.865L31.781,41.629z M106.642,28.753h-0.662l-6.285,1.272v0.967l2.112,0.637v15.598l-2.112,0.763v0.865h9.567V47.99l-2.62-0.763v-3.588h0.992 c5.954,0,9.287-3.614,9.287-8.626c0-4.301-3.002-6.26-5.241-6.26c-0.891,0-2.443,0.535-3.868,1.247l-0.967,0.483h-0.203V28.753z M31.527,19.771v-7.888c0-2.926-1.094-4.987-4.046-4.987c-1.221,0-2.137,0.381-3.333,0.916l-2.163,0.941V0h-0.662l-4.911,1.807H0 v4.911h2.316L3.257,3.69h3.181v15.776L3.97,20.407V21.4h10.61v-0.993l-2.213-0.941V3.69h4.783v16.081l-1.857,0.763V21.4h8.55 v-0.866l-1.858-0.763V9.873c0.458-0.127,1.247-0.229,1.832-0.229c1.578,0,2.875,0.865,2.875,3.46v6.667l-1.857,0.763V21.4h8.804 v-0.866L31.527,19.771z"/>
</svg>
